<svg width="900" height="387" viewBox="0 0 900 387" class="keymap" xmlns="http://www.w3.org/2000/svg" xmlns:xlink="http://www.w3.org/1999/xlink">
<style>/* inherit to force styles through use tags */
svg path {
    fill: inherit;
}

/* font and background color specifications */
svg.keymap {
    font-family: SFMono-Regular,Consolas,Liberation Mono,Menlo,monospace;
    font-size: 14px;
    font-kerning: normal;
    text-rendering: optimizeLegibility;
    fill: #24292e;
}

/* default key styling */
rect.key {
    fill: #f6f8fa;
}

rect.key, rect.combo {
    stroke: #c9cccf;
    stroke-width: 1;
}

/* default key side styling, only used is draw_key_sides is set */
rect.side {
    filter: brightness(90%);
}

/* color accent for combo boxes */
rect.combo, rect.combo-separate {
    fill: #cdf;
}

/* color accent for held keys */
rect.held, rect.combo.held {
    fill: #fdd;
}

/* color accent for ghost (optional) keys */
rect.ghost, rect.combo.ghost {
    stroke-dasharray: 4, 4;
    stroke-width: 2;
}

text {
    text-anchor: middle;
    dominant-baseline: middle;
}

/* styling for layer labels */
text.label {
    font-weight: bold;
    text-anchor: start;
    stroke: white;
    stroke-width: 4;
    paint-order: stroke;
}

/* styling for optional footer */
text.footer {
    text-anchor: end;
    dominant-baseline: auto;
    stroke: white;
    stroke-width: 4;
    paint-order: stroke;
}

/* styling for combo tap, and key non-tap label text */
text.combo, text.hold, text.shifted, text.left, text.right {
    font-size: 11px;
}

text.hold {
    text-anchor: middle;
    dominant-baseline: auto;
}

text.shifted {
    text-anchor: middle;
    dominant-baseline: hanging;
}

text.left {
    text-anchor: start;
}

text.right {
    text-anchor: end;
}

text.layer-activator {
    text-decoration: underline;
}

/* styling for hold/shifted label text in combo box */
text.combo.hold, text.combo.shifted, text.combo.left, text.combo.right {
    font-size: 8px;
}

/* lighter symbol for transparent keys */
text.trans {
    fill: #7b7e81;
}

/* styling for combo dendrons */
path.combo {
    stroke-width: 1;
    stroke: gray;
    fill: none;
}

/* Start Tabler Icons Cleanup */
/* cannot use height/width with glyphs */
.icon-tabler > path {
    fill: inherit;
    stroke: inherit;
    stroke-width: 2;
}
/* hide tabler's default box */
.icon-tabler > path[stroke="none"][fill="none"] {
    visibility: hidden;
}
/* End Tabler Icons Cleanup */

@media (prefers-color-scheme: dark) {
svg.keymap { fill: #d1d6db; }
rect.key { fill: #3f4750; }
rect.key, rect.combo { stroke: #60666c; }
rect.combo, rect.combo-separate { fill: #1f3d7a; }
rect.held, rect.combo.held { fill: #854747; }
text.label, text.footer { stroke: black; }
text.trans { fill: #7e8184; }
path.combo { stroke: #7f7f7f; }

}</style>
<g transform="translate(30, 0)" class="layer-combos">
<text x="0" y="28" class="label" id="combos">combos:</text>
<g transform="translate(0, 56)">
<g transform="translate(28, 49)" class="key keypos-0">
<rect rx="6" ry="6" x="-26" y="-26" width="52" height="52" class="key"/>
</g>
<g transform="translate(84, 49)" class="key keypos-1">
<rect rx="6" ry="6" x="-26" y="-26" width="52" height="52" class="key"/>
</g>
<g transform="translate(140, 35)" class="key keypos-2">
<rect rx="6" ry="6" x="-26" y="-26" width="52" height="52" class="key"/>
</g>
<g transform="translate(196, 28)" class="key keypos-3">
<rect rx="6" ry="6" x="-26" y="-26" width="52" height="52" class="key"/>
</g>
<g transform="translate(252, 35)" class="key keypos-4">
<rect rx="6" ry="6" x="-26" y="-26" width="52" height="52" class="key"/>
</g>
<g transform="translate(308, 42)" class="key keypos-5">
<rect rx="6" ry="6" x="-26" y="-26" width="52" height="52" class="key"/>
</g>
<g transform="translate(532, 42)" class="key keypos-6">
<rect rx="6" ry="6" x="-26" y="-26" width="52" height="52" class="key"/>
</g>
<g transform="translate(588, 35)" class="key keypos-7">
<rect rx="6" ry="6" x="-26" y="-26" width="52" height="52" class="key"/>
</g>
<g transform="translate(644, 28)" class="key keypos-8">
<rect rx="6" ry="6" x="-26" y="-26" width="52" height="52" class="key"/>
</g>
<g transform="translate(700, 35)" class="key keypos-9">
<rect rx="6" ry="6" x="-26" y="-26" width="52" height="52" class="key"/>
</g>
<g transform="translate(756, 49)" class="key keypos-10">
<rect rx="6" ry="6" x="-26" y="-26" width="52" height="52" class="key"/>
</g>
<g transform="translate(812, 49)" class="key keypos-11">
<rect rx="6" ry="6" x="-26" y="-26" width="52" height="52" class="key"/>
</g>
<g transform="translate(28, 105)" class="key keypos-12">
<rect rx="6" ry="6" x="-26" y="-26" width="52" height="52" class="key"/>
</g>
<g transform="translate(84, 105)" class="key keypos-13">
<rect rx="6" ry="6" x="-26" y="-26" width="52" height="52" class="key"/>
</g>
<g transform="translate(140, 91)" class="key keypos-14">
<rect rx="6" ry="6" x="-26" y="-26" width="52" height="52" class="key"/>
</g>
<g transform="translate(196, 84)" class="key keypos-15">
<rect rx="6" ry="6" x="-26" y="-26" width="52" height="52" class="key"/>
</g>
<g transform="translate(252, 91)" class="key keypos-16">
<rect rx="6" ry="6" x="-26" y="-26" width="52" height="52" class="key"/>
</g>
<g transform="translate(308, 98)" class="key keypos-17">
<rect rx="6" ry="6" x="-26" y="-26" width="52" height="52" class="key"/>
</g>
<g transform="translate(532, 98)" class="key keypos-18">
<rect rx="6" ry="6" x="-26" y="-26" width="52" height="52" class="key"/>
</g>
<g transform="translate(588, 91)" class="key keypos-19">
<rect rx="6" ry="6" x="-26" y="-26" width="52" height="52" class="key"/>
</g>
<g transform="translate(644, 84)" class="key keypos-20">
<rect rx="6" ry="6" x="-26" y="-26" width="52" height="52" class="key"/>
</g>
<g transform="translate(700, 91)" class="key keypos-21">
<rect rx="6" ry="6" x="-26" y="-26" width="52" height="52" class="key"/>
</g>
<g transform="translate(756, 105)" class="key keypos-22">
<rect rx="6" ry="6" x="-26" y="-26" width="52" height="52" class="key"/>
</g>
<g transform="translate(812, 105)" class="key keypos-23">
<rect rx="6" ry="6" x="-26" y="-26" width="52" height="52" class="key"/>
</g>
<g transform="translate(28, 161)" class="key keypos-24">
<rect rx="6" ry="6" x="-26" y="-26" width="52" height="52" class="key"/>
</g>
<g transform="translate(84, 161)" class="key keypos-25">
<rect rx="6" ry="6" x="-26" y="-26" width="52" height="52" class="key"/>
</g>
<g transform="translate(140, 147)" class="key keypos-26">
<rect rx="6" ry="6" x="-26" y="-26" width="52" height="52" class="key"/>
</g>
<g transform="translate(196, 140)" class="key keypos-27">
<rect rx="6" ry="6" x="-26" y="-26" width="52" height="52" class="key"/>
</g>
<g transform="translate(252, 147)" class="key keypos-28">
<rect rx="6" ry="6" x="-26" y="-26" width="52" height="52" class="key"/>
</g>
<g transform="translate(308, 154)" class="key keypos-29">
<rect rx="6" ry="6" x="-26" y="-26" width="52" height="52" class="key"/>
</g>
<g transform="translate(532, 154)" class="key keypos-30">
<rect rx="6" ry="6" x="-26" y="-26" width="52" height="52" class="key"/>
</g>
<g transform="translate(588, 147)" class="key keypos-31">
<rect rx="6" ry="6" x="-26" y="-26" width="52" height="52" class="key"/>
</g>
<g transform="translate(644, 140)" class="key keypos-32">
<rect rx="6" ry="6" x="-26" y="-26" width="52" height="52" class="key"/>
</g>
<g transform="translate(700, 147)" class="key keypos-33">
<rect rx="6" ry="6" x="-26" y="-26" width="52" height="52" class="key"/>
</g>
<g transform="translate(756, 161)" class="key keypos-34">
<rect rx="6" ry="6" x="-26" y="-26" width="52" height="52" class="key"/>
</g>
<g transform="translate(812, 161)" class="key keypos-35">
<rect rx="6" ry="6" x="-26" y="-26" width="52" height="52" class="key"/>
</g>
<g transform="translate(224, 205)" class="key keypos-36">
<rect rx="6" ry="6" x="-26" y="-26" width="52" height="52" class="key"/>
</g>
<g transform="translate(286, 213) rotate(15.0)" class="key keypos-37">
<rect rx="6" ry="6" x="-26" y="-26" width="52" height="52" class="key"/>
</g>
<g transform="translate(351, 224) rotate(30.0)" class="key keypos-38">
<rect rx="6" ry="6" x="-26" y="-40" width="52" height="80" class="key"/>
</g>
<g transform="translate(489, 224) rotate(-30.0)" class="key keypos-39">
<rect rx="6" ry="6" x="-26" y="-40" width="52" height="80" class="key"/>
</g>
<g transform="translate(554, 213) rotate(-15.0)" class="key keypos-40">
<rect rx="6" ry="6" x="-26" y="-26" width="52" height="52" class="key"/>
</g>
<g transform="translate(616, 205)" class="key keypos-41">
<rect rx="6" ry="6" x="-26" y="-26" width="52" height="52" class="key"/>
</g>
<g class="combo combopos-0">
<path d="M420,224 l-50,0" class="combo"/>
<path d="M420,224 l50,0" class="combo"/>
<rect rx="6" ry="6" x="406" y="211" width="28" height="26" class="combo"/>
<text x="420" y="224" class="combo tap">
<tspan x="420" dy="-0.6em">colemak</tspan><tspan x="420" dy="1.2em">-dh</tspan>
</text>
<text x="420" y="235" class="combo hold">toggle</text>
</g>
<g class="combo combopos-1">
<path d="M420,161 l-373,0" class="combo"/>
<path d="M420,161 l373,0" class="combo"/>
<rect rx="6" ry="6" x="406" y="148" width="28" height="26" class="combo"/>
<text x="420" y="161" class="combo tap"><tspan style="font-size: 88%">CAPSLOCK</tspan></text>
</g>
<g class="combo combopos-2">
<rect rx="6" ry="6" x="241" y="196" width="28" height="26" class="combo"/>
<text x="255" y="209" class="combo tap">media</text>
</g>
<g class="combo combopos-3">
<rect rx="6" ry="6" x="571" y="196" width="28" height="26" class="combo"/>
<text x="585" y="209" class="combo tap">sys</text>
</g>
<g class="combo combopos-4">
<rect rx="6" ry="6" x="70" y="64" width="28" height="26" class="combo"/>
<text x="84" y="77" class="combo tap">!</text>
</g>
<g class="combo combopos-5">
<rect rx="6" ry="6" x="126" y="50" width="28" height="26" class="combo"/>
<text x="140" y="63" class="combo tap">@</text>
</g>
<g class="combo combopos-6">
<rect rx="6" ry="6" x="182" y="43" width="28" height="26" class="combo"/>
<text x="196" y="56" class="combo tap">#</text>
</g>
<g class="combo combopos-7">
<rect rx="6" ry="6" x="238" y="50" width="28" height="26" class="combo"/>
<text x="252" y="63" class="combo tap">$</text>
</g>
<g class="combo combopos-8">
<rect rx="6" ry="6" x="294" y="57" width="28" height="26" class="combo"/>
<text x="308" y="70" class="combo tap">%</text>
</g>
<g class="combo combopos-9">
<rect rx="6" ry="6" x="518" y="57" width="28" height="26" class="combo"/>
<text x="532" y="70" class="combo tap">^</text>
</g>
<g class="combo combopos-10">
<rect rx="6" ry="6" x="574" y="50" width="28" height="26" class="combo"/>
<text x="588" y="63" class="combo tap">&amp;</text>
</g>
<g class="combo combopos-11">
<rect rx="6" ry="6" x="630" y="43" width="28" height="26" class="combo"/>
<text x="644" y="56" class="combo tap">*</text>
</g>
<g class="combo combopos-12">
<rect rx="6" ry="6" x="686" y="50" width="28" height="26" class="combo"/>
<text x="700" y="63" class="combo tap">(</text>
</g>
<g class="combo combopos-13">
<rect rx="6" ry="6" x="742" y="64" width="28" height="26" class="combo"/>
<text x="756" y="77" class="combo tap">)</text>
</g>
<g class="combo combopos-14">
<rect rx="6" ry="6" x="70" y="120" width="28" height="26" class="combo"/>
<text x="84" y="133" class="combo tap">_</text>
</g>
<g class="combo combopos-15">
<rect rx="6" ry="6" x="126" y="106" width="28" height="26" class="combo"/>
<text x="140" y="119" class="combo tap">+</text>
</g>
<g class="combo combopos-16">
<rect rx="6" ry="6" x="182" y="99" width="28" height="26" class="combo"/>
<text x="196" y="112" class="combo tap">{</text>
</g>
<g class="combo combopos-17">
<rect rx="6" ry="6" x="238" y="106" width="28" height="26" class="combo"/>
<text x="252" y="119" class="combo tap">}</text>
</g>
<g class="combo combopos-18">
<rect rx="6" ry="6" x="294" y="113" width="28" height="26" class="combo"/>
<text x="308" y="126" class="combo tap">|</text>
</g>
<g class="combo combopos-19">
<rect rx="6" ry="6" x="518" y="113" width="28" height="26" class="combo"/>
<text x="532" y="126" class="combo tap">
<tspan x="532" dy="-0.6em">KP</tspan><tspan x="532" dy="1.2em">MINUS</tspan>
</text>
</g>
<g class="combo combopos-20">
<rect rx="6" ry="6" x="574" y="106" width="28" height="26" class="combo"/>
<text x="588" y="119" class="combo tap">
<tspan x="588" dy="-0.6em">KP</tspan><tspan x="588" dy="1.2em">EQUAL</tspan>
</text>
</g>
<g class="combo combopos-21">
<rect rx="6" ry="6" x="630" y="99" width="28" height="26" class="combo"/>
<text x="644" y="112" class="combo tap">[</text>
</g>
<g class="combo combopos-22">
<rect rx="6" ry="6" x="686" y="106" width="28" height="26" class="combo"/>
<text x="700" y="119" class="combo tap">]</text>
</g>
<g class="combo combopos-23">
<rect rx="6" ry="6" x="742" y="120" width="28" height="26" class="combo"/>
<text x="756" y="133" class="combo tap">\</text>
</g>
<g class="combo combopos-24">
<rect rx="6" ry="6" x="98" y="29" width="28" height="26" class="combo"/>
<text x="112" y="42" class="combo tap">TAB</text>
</g>
<g class="combo combopos-25">
<rect rx="6" ry="6" x="98" y="141" width="28" height="26" class="combo"/>
<text x="112" y="154" class="combo tap">Ctl+X</text>
</g>
<g class="combo combopos-26">
<rect rx="6" ry="6" x="154" y="130" width="28" height="26" class="combo"/>
<text x="168" y="144" class="combo tap">Ctl+C</text>
</g>
<g class="combo combopos-27">
<rect rx="6" ry="6" x="210" y="130" width="28" height="26" class="combo"/>
<text x="224" y="144" class="combo tap">Ctl+V</text>
</g>
</g>
</g>
<text x="870.0" y="359.0" class="footer">Created with <a href="https://github.com/caksoylar/keymap-drawer">keymap-drawer</a></text></svg>
